<svg width="638" height="138" viewBox="0 0 638 138" fill="none" xmlns="http://www.w3.org/2000/svg">
<g clip-path="url(#clip0_216_5)">
<path d="M64.8635 16.8278C48.8623 18.0553 35.4063 19.0544 34.9965 19.0544C34.4117 19.083 34.1192 18.8831 33.8559 18.198C33.4171 17.2274 32.042 16.1141 30.9012 15.8572C29.702 15.5717 28.1223 16.1712 27.157 17.256C26.4256 18.0553 26.25 18.512 26.25 19.5397C26.25 20.9956 26.8644 22.3373 27.7128 22.794C28.0346 22.9653 28.2978 23.2508 28.2978 23.4221C28.2978 23.6219 22.5058 36.1253 15.3974 51.255L2.52628 78.7455L3.46236 80.0873C3.98891 80.858 12.0041 92.191 21.2479 105.294C31.1647 119.368 38.0389 129.359 38.0096 129.702C37.9803 130.015 37.9513 130.815 37.922 131.471C37.834 134.84 42.2512 136.581 44.533 134.069C45.0011 133.527 45.5569 132.87 45.7031 132.642C45.9371 132.242 51.1149 131.671 76.4184 129.216L106.841 126.276L120.356 98.871L133.841 71.4661L135.157 71.2663C135.889 71.1808 136.825 70.8666 137.234 70.6098C138.902 69.5251 139.487 66.8415 138.375 65.3858C137.088 63.7014 135.596 63.159 133.607 63.7014C132.905 63.8727 131.91 62.5596 114.944 39.2084L96.9828 14.5155L95.491 14.5441C94.6427 14.5726 80.8646 15.6003 64.8635 16.8278ZM94.2625 15.743C90.4594 17.8555 67.4084 30.0164 66.9696 30.102C66.7064 30.1876 59.247 28.1037 50.4129 25.506C41.5785 22.9082 34.3238 20.7958 34.2654 20.7958C34.2068 20.7958 34.1482 20.5389 34.1482 20.2248C34.1482 19.7681 34.3531 19.6539 35.1137 19.6254C35.6109 19.6254 49.1548 18.6262 65.156 17.3987C81.1572 16.1712 94.5257 15.1435 94.8473 15.115C95.2278 15.115 95.0229 15.3148 94.2625 15.743ZM100.376 31.6435C102.453 40.6071 104.091 48.0007 104.033 48.0578C103.945 48.1149 99.9666 45.6884 95.1399 42.6625L86.3934 37.1245L86.4813 35.5544C86.5397 34.1556 86.452 33.8702 85.633 32.9852C83.8484 30.9869 81.2451 30.9584 79.5775 32.8996L78.7585 33.8702L73.259 32.243C68.1691 30.7871 67.7889 30.6158 68.374 30.2447C69.5439 29.474 96.0175 15.429 96.3394 15.4004C96.5149 15.3719 98.2699 22.4229 100.376 31.6435ZM115.588 41.0068C132.028 63.5872 132.466 64.244 131.969 64.7863C131.676 65.1003 131.296 65.3 131.091 65.2145C130.887 65.1287 124.948 61.4462 117.898 57.0216C110.849 52.5681 105.057 48.9428 105.027 48.9428C104.94 48.8857 97.6265 17.0847 97.6265 16.7421C97.6265 16.314 96.8658 15.2863 115.588 41.0068ZM50.5299 25.8485C58.8082 28.275 65.7411 30.3589 65.946 30.4731C66.1213 30.5587 61.1193 33.3849 54.8591 36.7248C48.57 40.0647 43.3921 42.7483 43.3628 42.7196C43.1582 42.4341 32.6857 23.0224 32.6857 22.8797C32.6857 22.8226 32.9783 22.3658 33.3585 21.9091C33.8559 21.2811 34.1775 21.1383 34.7333 21.2525C35.1428 21.3382 42.2512 23.3935 50.5299 25.8485ZM37.5708 33.3563C40.4962 38.7803 42.807 43.262 42.6901 43.3762C42.5731 43.4619 39.8232 45.8597 36.5762 48.7144C33.3292 51.5692 30.6086 53.9099 30.521 53.9099C30.4333 53.9099 30.3454 47.1157 30.3454 38.8087C30.3454 24.6496 30.3747 23.679 30.8721 23.5648C31.1354 23.4792 31.5742 23.4506 31.8081 23.4792C32.0714 23.5077 34.4117 27.5328 37.5708 33.3563ZM30.0529 39.0371V54.4239L17.1233 65.8423C9.98569 72.1229 4.10591 77.204 4.0474 77.1469C3.98891 77.1184 9.57616 65.0432 16.4798 50.3701C26.367 29.2456 29.1169 23.6504 29.5264 23.6504C30.0238 23.6504 30.0529 24.3641 30.0529 39.0371ZM73.0541 32.4428L78.4659 34.07L78.6415 35.583C78.7585 36.4108 79.051 37.3243 79.3143 37.6098C79.8407 38.1806 80.8063 37.2672 70.9189 45.46L65.1269 50.2559L54.7715 46.7734C49.0671 44.8321 44.3867 43.1764 44.3867 43.0906C44.3867 42.8625 66.9696 30.8157 67.3501 30.8157C67.5256 30.8157 70.0706 31.5579 73.0541 32.4428ZM94.906 42.8338C99.7034 45.8313 103.799 48.4291 104.004 48.6288C104.384 48.9714 107.953 63.7585 107.806 64.3579C107.718 64.7292 88.0317 58.1634 87.7098 57.6495C87.5929 57.4782 86.7446 53.1963 85.8083 48.1436C84.2872 39.7792 84.1703 38.9516 84.6091 38.6945C84.9016 38.5519 85.3111 38.1806 85.5744 37.8953C85.8376 37.6098 86.1009 37.353 86.1302 37.353C86.1595 37.353 90.1086 39.8079 94.906 42.8338ZM81.1279 38.9516C81.7423 39.2084 82.5906 39.3226 83.0294 39.2369C83.7608 39.0942 83.8777 39.1798 84.024 40.0076C86.5397 53.596 87.2417 57.6211 87.1248 57.6211C87.0371 57.6211 82.0934 55.9938 76.1842 53.9955L65.3902 50.3701L66.3848 49.5993C66.9112 49.1712 70.129 46.5163 73.493 43.6617C76.8863 40.8355 79.7238 38.5232 79.8117 38.5232C79.9287 38.4948 80.5137 38.6945 81.1279 38.9516ZM60.4172 49.2567C62.5234 49.9706 64.2786 50.6272 64.2786 50.7698C64.2786 51.0837 48.3944 64.1869 48.0432 64.1582C47.78 64.1298 43.8602 45.5171 43.8309 44.1469C43.8016 43.7472 44.8548 44.0043 50.1787 45.8026C53.6599 47.0015 58.2817 48.5431 60.4172 49.2567ZM43.2165 44.1756C43.2165 44.3182 44.1235 49.0286 45.2643 54.6236C46.3759 60.2473 47.2242 64.929 47.1656 65.0432C47.0779 65.1858 43.9772 67.8123 40.2914 70.8666L33.5634 76.4619L32.6857 76.0338C32.2176 75.8053 31.5156 75.6054 31.0768 75.6054H30.3454V65.2429V54.9091L36.5762 49.428C39.9695 46.4308 42.8656 43.9472 43.0119 43.9472C43.1289 43.9185 43.2165 44.0327 43.2165 44.1756ZM123.135 60.647C127.61 63.4445 131.267 65.871 131.267 66.0423C131.267 66.9844 130.828 66.9844 119.858 65.9852C113.832 65.4142 108.83 64.929 108.772 64.8718C108.625 64.7292 105.232 50.2275 105.232 49.7135C105.232 49.5138 107.426 50.7414 110.146 52.4255C112.838 54.1383 118.688 57.8208 123.135 60.647ZM82.8245 56.8503C86.1009 57.935 87.2124 58.449 87.4173 58.8771C87.5343 59.2197 88.4705 63.9014 89.4358 69.2967L91.2494 79.1168L90.5474 79.7447C90.1672 80.0873 86.2764 83.37 81.8592 87.0528L73.8148 93.7041L63.0498 90.1642C57.1409 88.223 52.2849 86.6244 52.2849 86.6244C52.2849 86.596 51.2903 81.7143 50.091 75.7482C48.8916 69.7819 48.0139 64.8434 48.1312 64.7292C48.2481 64.615 52.0802 61.4462 56.6434 57.6782L64.9221 50.7985L71.7086 53.1107C75.4238 54.3668 80.4258 56.0509 82.8245 56.8503ZM29.702 75.5769C28.9706 75.8053 27.157 77.8034 26.9814 78.5458C26.4842 80.4583 27.9467 82.8277 29.8482 83.1703L30.7842 83.3416L32.013 89.2222C32.715 92.4765 33.2122 95.1598 33.1829 95.1885C33.0366 95.3598 3.66712 78.8597 3.66712 78.6313C3.66712 78.5171 9.57616 73.2076 16.8015 66.8702L29.9066 55.3372L29.9945 65.3858C30.0529 73.2931 29.9945 75.4911 29.702 75.5769ZM97.9774 61.9601C103.243 63.7301 107.572 65.2716 107.572 65.3858C107.572 65.6997 91.7466 78.8026 91.5713 78.6313C91.4834 78.5742 90.635 74.2923 89.699 69.1254C88.7628 63.9869 87.9145 59.5336 87.8561 59.2481C87.7975 58.9913 87.8854 58.7629 88.0607 58.7629C88.2656 58.7629 92.7121 60.1902 97.9774 61.9601ZM49.2134 74.2351C50.1494 79.0026 51.0856 83.6842 51.2612 84.6547L51.6121 86.4246L43.2458 83.6271L34.8796 80.8296L34.8505 79.5163C34.8212 78.7742 34.587 77.8605 34.2945 77.4324C33.885 76.8045 33.8559 76.6332 34.2068 76.319C35.377 75.2059 47.1073 65.6142 47.2828 65.6142C47.3705 65.6142 48.2481 69.4964 49.2134 74.2351ZM120.268 66.6133C126.031 67.1557 130.799 67.6409 130.828 67.6694C130.887 67.7265 131.121 68.2404 131.384 68.8398L131.823 69.9245L130.74 70.8666C126.967 74.178 108.275 90.1642 108.157 90.1642C108.07 90.1642 108.157 85.2542 108.362 79.2594C108.538 73.236 108.713 67.7265 108.713 66.9557C108.742 65.871 108.83 65.6142 109.269 65.6142C109.532 65.6142 114.476 66.0708 120.268 66.6133ZM107.718 78.4602C107.485 85.2828 107.309 90.9066 107.309 90.935C107.28 90.9637 103.302 94.4177 99.1769 97.9576C98.5625 98.4999 98.4748 98.4999 97.5095 98.0431C96.9537 97.7863 96.1931 97.5863 95.7836 97.5863C95.3155 97.5863 94.9646 97.3866 94.8766 97.0726C94.5257 95.8735 91.7466 80.1444 91.8345 79.7733C91.8929 79.4307 107.894 65.871 108.07 66.0136C108.099 66.0423 107.923 71.6374 107.718 78.4602ZM132.847 70.6098C133.402 71.0095 133.315 71.2663 130.214 77.5182C128.459 81.1149 122.52 93.1046 117.079 104.181C111.609 115.285 107.104 124.335 107.046 124.278C106.958 124.22 107.777 95.845 107.953 92.1055L108.011 90.7637L120.005 80.487C126.616 74.8062 132.057 70.1816 132.145 70.1816C132.232 70.2101 132.554 70.3814 132.847 70.6098ZM18.9077 88.0233L33.4755 96.159L36.7225 111.917L39.9695 127.703L39.2968 128.36L38.6533 128.988L23.6174 107.664C15.3389 95.9306 7.52846 84.8831 6.2706 83.1132C5.04199 81.3433 4.07665 79.8875 4.16442 79.8875C4.25218 79.8875 10.8633 83.5413 18.9077 88.0233ZM93.063 89.0224C94.4964 96.7013 94.6134 97.4721 94.1746 97.7292C93.9114 97.8718 93.297 98.3857 92.7998 98.871L91.9222 99.7275L83.1757 96.8442L74.3999 93.9609L82.8831 86.9099C87.5343 83.0277 91.3664 80.0302 91.425 80.2299C91.454 80.4299 92.2147 84.3979 93.063 89.0224ZM43.3628 83.9411C47.7216 85.3684 51.3782 86.6244 51.4951 86.7386C51.7584 86.967 55.8244 106.978 55.7368 107.521C55.6782 107.72 51.2319 105.408 44.6499 101.726L33.651 95.6166L32.4225 89.5932C31.7204 86.282 31.223 83.5413 31.2523 83.5129C31.3109 83.4558 31.8374 83.2274 32.4516 82.9706C33.0366 82.7135 33.7387 82.1711 34.0605 81.7714C34.3531 81.3433 34.7626 81.1149 35.0258 81.2006C35.26 81.2862 39.0335 82.5138 43.3628 83.9411ZM62.5527 90.3069C68.0228 92.1055 72.7326 93.7041 72.9665 93.8183C73.2883 94.018 71.2991 95.7879 65.1853 100.898C60.6804 104.637 56.8776 107.749 56.7607 107.777C56.6144 107.835 55.7368 103.981 54.7715 99.242C52.3435 87.0241 52.3435 87.0241 52.4604 87.0241C52.519 87.0241 57.0532 88.5085 62.5527 90.3069ZM106.841 108.777C106.549 118.083 106.285 125.734 106.256 125.791C106.139 125.905 73.3467 114.315 73.3467 114.144C73.3467 114.058 77.5006 111.574 82.6199 108.634L91.8638 103.267L92.8291 104.181C93.5604 104.894 94.1162 105.123 95.2278 105.237C98.5332 105.522 100.639 102.639 99.2062 99.7275L98.7674 98.7854L100.025 97.6434C103.214 94.7888 107.104 91.5915 107.221 91.7057C107.28 91.7915 107.104 99.4704 106.841 108.777ZM83.2343 97.1581L91.8052 99.9844L91.7175 101.526L91.6296 103.096L82.2981 108.463C77.1788 111.432 72.7909 113.858 72.557 113.858C71.7963 113.858 57.2578 108.605 57.3164 108.377C57.4918 107.92 74.078 94.1893 74.3706 94.2751C74.5462 94.3035 78.5246 95.6166 83.2343 97.1581ZM46.844 103.581C51.7584 106.322 55.7661 108.72 55.7075 108.891C55.6782 109.062 52.8993 113.373 49.5646 118.454L43.48 127.703L41.8417 127.56L40.1744 127.418L37.015 112.145C35.2891 103.752 33.885 96.7584 33.8559 96.6442C33.8559 96.359 34.6749 96.8155 46.844 103.581ZM64.3663 111.717C68.3447 113.116 71.5917 114.343 71.5917 114.457C71.5917 114.657 45.9371 129.559 45.5862 129.559C45.469 129.559 45.0888 129.188 44.7379 128.702L44.0942 127.875L50.2666 118.425C53.689 113.23 56.6144 109.034 56.7897 109.091C56.9653 109.148 60.3586 110.347 64.3663 111.717ZM88.4412 120.195C97.0121 123.221 103.945 125.791 103.828 125.876C103.594 126.076 46.142 131.671 46.025 131.528C45.9664 131.471 45.8494 131.1 45.7615 130.7C45.5862 130.015 46.2296 129.616 58.8082 122.365C66.0922 118.169 72.2058 114.715 72.44 114.715C72.6446 114.715 79.8407 117.198 88.4412 120.195Z" fill="white"/>
<mask id="mask0_216_5" style="mask-type:luminance" maskUnits="userSpaceOnUse" x="-1" y="11" width="143" height="128">
<path d="M141.472 12H0V137.776H141.472V12Z" fill="white" stroke="white" stroke-width="0.5"/>
<path d="M64.8635 16.8278C48.8623 18.0553 35.4063 19.0544 34.9965 19.0544C34.4117 19.083 34.1192 18.8831 33.8559 18.198C33.4171 17.2274 32.042 16.1141 30.9012 15.8572C29.702 15.5717 28.1223 16.1712 27.157 17.256C26.4256 18.0553 26.25 18.512 26.25 19.5397C26.25 20.9956 26.8644 22.3373 27.7128 22.794C28.0346 22.9653 28.2978 23.2508 28.2978 23.4221C28.2978 23.6219 22.5058 36.1253 15.3974 51.255L2.52628 78.7455L3.46236 80.0873C3.98891 80.858 12.0041 92.191 21.2479 105.294C31.1647 119.367 38.0389 129.359 38.0096 129.702C37.9803 130.015 37.9513 130.815 37.922 131.471C37.834 134.84 42.2512 136.581 44.533 134.069C45.0011 133.527 45.5569 132.87 45.7031 132.642C45.9371 132.242 51.1149 131.671 76.4184 129.216L106.841 126.276L120.356 98.871L133.841 71.4661L135.157 71.2663C135.889 71.1808 136.825 70.8666 137.234 70.6098C138.902 69.5251 139.487 66.8415 138.375 65.3858C137.088 63.7014 135.596 63.159 133.607 63.7014C132.905 63.8727 131.91 62.5596 114.944 39.2084L96.9828 14.5155L95.491 14.5441C94.6427 14.5726 80.8646 15.6003 64.8635 16.8278ZM94.2625 15.743C90.4594 17.8555 67.4084 30.0164 66.9696 30.102C66.7064 30.1876 59.247 28.1037 50.4129 25.506C41.5785 22.9082 34.3238 20.7958 34.2654 20.7958C34.2068 20.7958 34.1482 20.5389 34.1482 20.2248C34.1482 19.7681 34.3531 19.6539 35.1137 19.6254C35.6109 19.6254 49.1548 18.6262 65.156 17.3987C81.1572 16.1712 94.5257 15.1435 94.8473 15.115C95.2278 15.115 95.0229 15.3148 94.2625 15.743ZM100.376 31.6435C102.453 40.6071 104.091 48.0007 104.033 48.0578C103.945 48.1149 99.9666 45.6884 95.1399 42.6625L86.3934 37.1245L86.4813 35.5544C86.5397 34.1556 86.452 33.8702 85.633 32.9852C83.8484 30.9869 81.2451 30.9584 79.5775 32.8996L78.7585 33.8702L73.259 32.243C68.1691 30.7871 67.7889 30.6158 68.374 30.2447C69.5439 29.474 96.0175 15.429 96.3394 15.4004C96.5149 15.3719 98.2699 22.4229 100.376 31.6435ZM115.588 41.0068C132.028 63.5872 132.466 64.244 131.969 64.7863C131.676 65.1003 131.296 65.3 131.091 65.2145C130.887 65.1287 124.948 61.4462 117.898 57.0216C110.849 52.5681 105.057 48.9428 105.027 48.9428C104.94 48.8857 97.6265 17.0847 97.6265 16.7421C97.6265 16.314 96.8658 15.2863 115.588 41.0068ZM50.5299 25.8485C58.8082 28.275 65.7411 30.3589 65.946 30.4731C66.1213 30.5587 61.1193 33.3849 54.8591 36.7248C48.57 40.0647 43.3921 42.7483 43.3628 42.7196C43.1582 42.4341 32.6857 23.0224 32.6857 22.8797C32.6857 22.8226 32.9783 22.3658 33.3585 21.9091C33.8559 21.2811 34.1775 21.1383 34.7333 21.2525C35.1428 21.3382 42.2512 23.3935 50.5299 25.8485ZM37.5708 33.3563C40.4962 38.7803 42.807 43.262 42.6901 43.3762C42.5731 43.4619 39.8232 45.8597 36.5762 48.7144C33.3292 51.5692 30.6086 53.9099 30.521 53.9099C30.4333 53.9099 30.3454 47.1157 30.3454 38.8087C30.3454 24.6496 30.3747 23.679 30.8721 23.5648C31.1354 23.4792 31.5742 23.4506 31.8081 23.4792C32.0714 23.5077 34.4117 27.5328 37.5708 33.3563ZM30.0529 39.0371V54.4239L17.1233 65.8423C9.98569 72.1229 4.10591 77.204 4.0474 77.1469C3.98891 77.1184 9.57616 65.0432 16.4798 50.3701C26.367 29.2456 29.1169 23.6504 29.5264 23.6504C30.0238 23.6504 30.0529 24.3641 30.0529 39.0371ZM73.0541 32.4428L78.4659 34.07L78.6415 35.583C78.7585 36.4108 79.051 37.3243 79.3143 37.6098C79.8407 38.1806 80.8063 37.2672 70.9189 45.46L65.1269 50.2559L54.7715 46.7734C49.0671 44.8321 44.3867 43.1764 44.3867 43.0906C44.3867 42.8625 66.9696 30.8157 67.3501 30.8157C67.5256 30.8157 70.0706 31.5579 73.0541 32.4428ZM94.9059 42.8338C99.7034 45.8313 103.799 48.4291 104.004 48.6288C104.384 48.9714 107.953 63.7585 107.806 64.3579C107.718 64.7292 88.0317 58.1634 87.7098 57.6495C87.5929 57.4782 86.7446 53.1963 85.8083 48.1436C84.2872 39.7792 84.1703 38.9516 84.6091 38.6945C84.9016 38.5519 85.3111 38.1806 85.5744 37.8953C85.8376 37.6098 86.1009 37.353 86.1302 37.353C86.1595 37.353 90.1085 39.8079 94.9059 42.8338ZM81.1279 38.9516C81.7423 39.2084 82.5906 39.3226 83.0294 39.2369C83.7608 39.0942 83.8777 39.1798 84.024 40.0076C86.5397 53.596 87.2417 57.6211 87.1248 57.6211C87.0371 57.6211 82.0934 55.9938 76.1842 53.9955L65.3902 50.3701L66.3848 49.5993C66.9113 49.1712 70.129 46.5163 73.493 43.6617C76.8863 40.8355 79.7238 38.5232 79.8117 38.5232C79.9287 38.4948 80.5137 38.6945 81.1279 38.9516ZM60.4172 49.2567C62.5234 49.9706 64.2786 50.6272 64.2786 50.7698C64.2786 51.0837 48.3944 64.1869 48.0432 64.1582C47.78 64.1298 43.8602 45.5171 43.8309 44.1469C43.8016 43.7472 44.8548 44.0043 50.1787 45.8026C53.6599 47.0015 58.2817 48.5431 60.4172 49.2567ZM43.2165 44.1756C43.2165 44.3182 44.1235 49.0286 45.2643 54.6236C46.3759 60.2473 47.2242 64.929 47.1656 65.0432C47.0779 65.1858 43.9772 67.8123 40.2914 70.8666L33.5634 76.4619L32.6857 76.0338C32.2176 75.8053 31.5156 75.6054 31.0768 75.6054H30.3454V65.2429V54.9091L36.5762 49.428C39.9695 46.4308 42.8656 43.9472 43.0119 43.9472C43.1289 43.9185 43.2165 44.0327 43.2165 44.1756ZM123.135 60.647C127.61 63.4445 131.267 65.871 131.267 66.0423C131.267 66.9844 130.828 66.9844 119.858 65.9852C113.832 65.4142 108.83 64.929 108.772 64.8718C108.625 64.7292 105.232 50.2275 105.232 49.7135C105.232 49.5138 107.426 50.7414 110.146 52.4255C112.838 54.1383 118.688 57.8208 123.135 60.647ZM82.8245 56.8503C86.1009 57.935 87.2124 58.4489 87.4173 58.8771C87.5343 59.2197 88.4705 63.9014 89.4358 69.2967L91.2494 79.1168L90.5474 79.7447C90.1672 80.0873 86.2764 83.37 81.8592 87.0528L73.8148 93.7041L63.0498 90.1642C57.1409 88.223 52.2849 86.6244 52.2849 86.6244C52.2849 86.596 51.2903 81.7143 50.091 75.7482C48.8916 69.7819 48.0139 64.8434 48.1312 64.7292C48.2481 64.615 52.0802 61.4462 56.6434 57.6782L64.9221 50.7985L71.7087 53.1107C75.4238 54.3668 80.4258 56.0509 82.8245 56.8503ZM29.702 75.5769C28.9706 75.8053 27.157 77.8034 26.9814 78.5458C26.4842 80.4583 27.9467 82.8277 29.8482 83.1703L30.7842 83.3416L32.013 89.2222C32.715 92.4765 33.2122 95.1598 33.1829 95.1885C33.0366 95.3598 3.66712 78.8597 3.66712 78.6313C3.66712 78.5171 9.57616 73.2076 16.8015 66.8702L29.9066 55.3372L29.9945 65.3858C30.0529 73.2931 29.9945 75.4912 29.702 75.5769ZM97.9774 61.9601C103.243 63.7301 107.572 65.2716 107.572 65.3858C107.572 65.6997 91.7466 78.8026 91.5713 78.6313C91.4833 78.5742 90.635 74.2923 89.699 69.1254C88.7628 63.9869 87.9145 59.5336 87.8561 59.2481C87.7975 58.9913 87.8854 58.7629 88.0607 58.7629C88.2656 58.7629 92.7121 60.1902 97.9774 61.9601ZM49.2134 74.2351C50.1494 79.0026 51.0856 83.6842 51.2612 84.6547L51.6121 86.4246L43.2458 83.6271L34.8796 80.8296L34.8505 79.5162C34.8212 78.7742 34.587 77.8605 34.2945 77.4324C33.885 76.8045 33.8559 76.6332 34.2068 76.319C35.377 75.2059 47.1073 65.6142 47.2828 65.6142C47.3705 65.6142 48.2481 69.4964 49.2134 74.2351ZM120.268 66.6134C126.031 67.1557 130.799 67.6409 130.828 67.6694C130.887 67.7265 131.121 68.2404 131.384 68.8398L131.823 69.9245L130.74 70.8666C126.967 74.178 108.275 90.1642 108.157 90.1642C108.07 90.1642 108.157 85.2542 108.362 79.2594C108.538 73.236 108.713 67.7265 108.713 66.9557C108.742 65.871 108.83 65.6142 109.269 65.6142C109.532 65.6142 114.476 66.0708 120.268 66.6134ZM107.718 78.4602C107.485 85.2828 107.309 90.9066 107.309 90.935C107.28 90.9637 103.302 94.4177 99.1769 97.9576C98.5625 98.4999 98.4748 98.4999 97.5095 98.0431C96.9537 97.7863 96.1931 97.5863 95.7836 97.5863C95.3155 97.5863 94.9646 97.3866 94.8766 97.0726C94.5257 95.8735 91.7466 80.1444 91.8345 79.7733C91.8929 79.4307 107.894 65.871 108.07 66.0136C108.099 66.0423 107.923 71.6374 107.718 78.4602ZM132.847 70.6098C133.402 71.0095 133.315 71.2663 130.214 77.5182C128.459 81.1149 122.52 93.1046 117.079 104.181C111.609 115.285 107.104 124.335 107.046 124.278C106.958 124.22 107.777 95.845 107.953 92.1055L108.011 90.7637L120.005 80.487C126.616 74.8062 132.057 70.1816 132.145 70.1816C132.232 70.2101 132.554 70.3814 132.847 70.6098ZM18.9077 88.0233L33.4755 96.159L36.7225 111.917L39.9695 127.703L39.2968 128.36L38.6533 128.988L23.6174 107.664C15.3389 95.9306 7.52846 84.8831 6.2706 83.1132C5.04199 81.3433 4.07665 79.8875 4.16442 79.8875C4.25218 79.8875 10.8633 83.5413 18.9077 88.0233ZM93.063 89.0224C94.4964 96.7013 94.6134 97.4721 94.1746 97.7292C93.9114 97.8718 93.297 98.3857 92.7998 98.871L91.9222 99.7275L83.1757 96.8442L74.3999 93.9609L82.8831 86.9099C87.5343 83.0277 91.3664 80.0302 91.425 80.2299C91.454 80.4299 92.2147 84.3979 93.063 89.0224ZM43.3628 83.9411C47.7216 85.3684 51.3782 86.6244 51.4951 86.7386C51.7584 86.967 55.8244 106.978 55.7368 107.521C55.6782 107.72 51.2319 105.408 44.6499 101.726L33.651 95.6166L32.4225 89.5932C31.7204 86.282 31.223 83.5413 31.2523 83.5129C31.3109 83.4558 31.8374 83.2274 32.4516 82.9706C33.0366 82.7135 33.7387 82.1711 34.0605 81.7714C34.3531 81.3433 34.7626 81.1149 35.0258 81.2006C35.26 81.2862 39.0335 82.5138 43.3628 83.9411ZM62.5527 90.3069C68.0228 92.1055 72.7326 93.7041 72.9665 93.8183C73.2883 94.018 71.2991 95.7879 65.1853 100.898C60.6804 104.637 56.8776 107.749 56.7607 107.777C56.6144 107.835 55.7368 103.981 54.7715 99.242C52.3435 87.0241 52.3435 87.0241 52.4604 87.0241C52.519 87.0241 57.0532 88.5085 62.5527 90.3069ZM106.841 108.777C106.549 118.083 106.285 125.734 106.256 125.791C106.139 125.905 73.3467 114.315 73.3467 114.144C73.3467 114.058 77.5007 111.574 82.6199 108.634L91.8638 103.267L92.8291 104.181C93.5605 104.894 94.1162 105.123 95.2278 105.237C98.5332 105.522 100.639 102.639 99.2062 99.7275L98.7674 98.7854L100.025 97.6434C103.214 94.7888 107.104 91.5915 107.221 91.7057C107.28 91.7915 107.104 99.4704 106.841 108.777ZM83.2343 97.1582L91.8052 99.9844L91.7175 101.526L91.6296 103.096L82.2981 108.463C77.1788 111.432 72.7909 113.858 72.557 113.858C71.7963 113.858 57.2578 108.605 57.3164 108.377C57.4918 107.92 74.0781 94.1893 74.3706 94.2751C74.5462 94.3035 78.5245 95.6166 83.2343 97.1582ZM46.844 103.581C51.7584 106.322 55.7661 108.72 55.7075 108.891C55.6782 109.062 52.8992 113.373 49.5646 118.454L43.48 127.703L41.8417 127.56L40.1744 127.418L37.015 112.145C35.2891 103.752 33.885 96.7584 33.8559 96.6442C33.8559 96.359 34.6749 96.8155 46.844 103.581ZM64.3663 111.717C68.3447 113.116 71.5917 114.343 71.5917 114.457C71.5917 114.657 45.9371 129.559 45.5862 129.559C45.469 129.559 45.0888 129.188 44.7379 128.702L44.0942 127.875L50.2666 118.425C53.689 113.23 56.6144 109.034 56.7897 109.091C56.9653 109.148 60.3586 110.347 64.3663 111.717ZM88.4412 120.195C97.0121 123.221 103.945 125.791 103.828 125.876C103.594 126.076 46.142 131.671 46.025 131.528C45.9664 131.471 45.8494 131.1 45.7615 130.7C45.5862 130.015 46.2296 129.616 58.8082 122.365C66.0922 118.169 72.2058 114.715 72.44 114.715C72.6446 114.715 79.8407 117.198 88.4412 120.195Z" stroke="white" stroke-width="0.5"/>
</mask>
<g mask="url(#mask0_216_5)">
<path d="M64.8635 16.8278C48.8623 18.0553 35.4063 19.0544 34.9965 19.0544C34.4117 19.083 34.1192 18.8831 33.8559 18.198C33.4171 17.2274 32.042 16.1141 30.9012 15.8572C29.702 15.5717 28.1223 16.1712 27.157 17.256C26.4256 18.0553 26.25 18.512 26.25 19.5397C26.25 20.9956 26.8644 22.3373 27.7128 22.794C28.0346 22.9653 28.2978 23.2508 28.2978 23.4221C28.2978 23.6219 22.5058 36.1253 15.3974 51.255L2.52628 78.7455L3.46236 80.0873C3.98891 80.858 12.0041 92.191 21.2479 105.294C31.1647 119.367 38.0389 129.359 38.0096 129.702C37.9803 130.015 37.9513 130.815 37.922 131.471C37.834 134.84 42.2512 136.581 44.533 134.069C45.0011 133.527 45.5569 132.87 45.7031 132.642C45.9371 132.242 51.1149 131.671 76.4184 129.216L106.841 126.276L120.356 98.871L133.841 71.4661L135.157 71.2663C135.889 71.1808 136.825 70.8666 137.234 70.6098C138.902 69.5251 139.487 66.8415 138.375 65.3858C137.088 63.7014 135.596 63.159 133.607 63.7014C132.905 63.8727 131.91 62.5596 114.944 39.2084L96.9828 14.5155L95.491 14.5441C94.6427 14.5726 80.8646 15.6003 64.8635 16.8278ZM94.2625 15.743C90.4594 17.8555 67.4084 30.0164 66.9696 30.102C66.7064 30.1876 59.247 28.1037 50.4129 25.506C41.5785 22.9082 34.3238 20.7958 34.2654 20.7958C34.2068 20.7958 34.1482 20.5389 34.1482 20.2248C34.1482 19.7681 34.3531 19.6539 35.1137 19.6254C35.6109 19.6254 49.1548 18.6262 65.156 17.3987C81.1572 16.1712 94.5257 15.1435 94.8473 15.115C95.2278 15.115 95.0229 15.3148 94.2625 15.743ZM100.376 31.6435C102.453 40.6071 104.091 48.0007 104.033 48.0578C103.945 48.1149 99.9666 45.6884 95.1399 42.6625L86.3934 37.1245L86.4813 35.5544C86.5397 34.1556 86.452 33.8702 85.633 32.9852C83.8484 30.9869 81.2451 30.9584 79.5775 32.8996L78.7585 33.8702L73.259 32.243C68.1691 30.7871 67.7889 30.6158 68.374 30.2447C69.5439 29.474 96.0175 15.429 96.3394 15.4004C96.5149 15.3719 98.2699 22.4229 100.376 31.6435ZM115.588 41.0068C132.028 63.5872 132.466 64.244 131.969 64.7863C131.676 65.1003 131.296 65.3 131.091 65.2145C130.887 65.1287 124.948 61.4462 117.898 57.0216C110.849 52.5681 105.057 48.9428 105.027 48.9428C104.94 48.8857 97.6265 17.0847 97.6265 16.7421C97.6265 16.314 96.8658 15.2863 115.588 41.0068ZM50.5299 25.8485C58.8082 28.275 65.7411 30.3589 65.946 30.4731C66.1213 30.5587 61.1193 33.3849 54.8591 36.7248C48.57 40.0647 43.3921 42.7483 43.3628 42.7196C43.1582 42.4341 32.6857 23.0224 32.6857 22.8797C32.6857 22.8226 32.9783 22.3658 33.3585 21.9091C33.8559 21.2811 34.1775 21.1383 34.7333 21.2525C35.1428 21.3382 42.2512 23.3935 50.5299 25.8485ZM37.5708 33.3563C40.4962 38.7803 42.807 43.262 42.6901 43.3762C42.5731 43.4619 39.8232 45.8597 36.5762 48.7144C33.3292 51.5692 30.6086 53.9099 30.521 53.9099C30.4333 53.9099 30.3454 47.1157 30.3454 38.8087C30.3454 24.6496 30.3747 23.679 30.8721 23.5648C31.1354 23.4792 31.5742 23.4506 31.8081 23.4792C32.0714 23.5077 34.4117 27.5328 37.5708 33.3563ZM30.0529 39.0371V54.4239L17.1233 65.8423C9.98569 72.1229 4.10591 77.204 4.0474 77.1469C3.98891 77.1184 9.57616 65.0432 16.4798 50.3701C26.367 29.2456 29.1169 23.6504 29.5264 23.6504C30.0238 23.6504 30.0529 24.3641 30.0529 39.0371ZM73.0541 32.4428L78.4659 34.07L78.6415 35.583C78.7585 36.4108 79.051 37.3243 79.3143 37.6098C79.8407 38.1806 80.8063 37.2672 70.9189 45.46L65.1269 50.2559L54.7715 46.7734C49.0671 44.8321 44.3867 43.1764 44.3867 43.0906C44.3867 42.8625 66.9696 30.8157 67.3501 30.8157C67.5256 30.8157 70.0706 31.5579 73.0541 32.4428ZM94.9059 42.8338C99.7034 45.8313 103.799 48.4291 104.004 48.6288C104.384 48.9714 107.953 63.7585 107.806 64.3579C107.718 64.7292 88.0317 58.1634 87.7098 57.6495C87.5929 57.4782 86.7446 53.1963 85.8083 48.1436C84.2872 39.7792 84.1703 38.9516 84.6091 38.6945C84.9016 38.5519 85.3111 38.1806 85.5744 37.8953C85.8376 37.6098 86.1009 37.353 86.1302 37.353C86.1595 37.353 90.1085 39.8079 94.9059 42.8338ZM81.1279 38.9516C81.7423 39.2084 82.5906 39.3226 83.0294 39.2369C83.7608 39.0942 83.8777 39.1798 84.024 40.0076C86.5397 53.596 87.2417 57.6211 87.1248 57.6211C87.0371 57.6211 82.0934 55.9938 76.1842 53.9955L65.3902 50.3701L66.3848 49.5993C66.9113 49.1712 70.129 46.5163 73.493 43.6617C76.8863 40.8355 79.7238 38.5232 79.8117 38.5232C79.9287 38.4948 80.5137 38.6945 81.1279 38.9516ZM60.4172 49.2567C62.5234 49.9706 64.2786 50.6272 64.2786 50.7698C64.2786 51.0837 48.3944 64.1869 48.0432 64.1582C47.78 64.1298 43.8602 45.5171 43.8309 44.1469C43.8016 43.7472 44.8548 44.0043 50.1787 45.8026C53.6599 47.0015 58.2817 48.5431 60.4172 49.2567ZM43.2165 44.1756C43.2165 44.3182 44.1235 49.0286 45.2643 54.6236C46.3759 60.2473 47.2242 64.929 47.1656 65.0432C47.0779 65.1858 43.9772 67.8123 40.2914 70.8666L33.5634 76.4619L32.6857 76.0338C32.2176 75.8053 31.5156 75.6054 31.0768 75.6054H30.3454V65.2429V54.9091L36.5762 49.428C39.9695 46.4308 42.8656 43.9472 43.0119 43.9472C43.1289 43.9185 43.2165 44.0327 43.2165 44.1756ZM123.135 60.647C127.61 63.4445 131.267 65.871 131.267 66.0423C131.267 66.9844 130.828 66.9844 119.858 65.9852C113.832 65.4142 108.83 64.929 108.772 64.8718C108.625 64.7292 105.232 50.2275 105.232 49.7135C105.232 49.5138 107.426 50.7414 110.146 52.4255C112.838 54.1383 118.688 57.8208 123.135 60.647ZM82.8245 56.8503C86.1009 57.935 87.2124 58.4489 87.4173 58.8771C87.5343 59.2197 88.4705 63.9014 89.4358 69.2967L91.2494 79.1168L90.5474 79.7447C90.1672 80.0873 86.2764 83.37 81.8592 87.0528L73.8148 93.7041L63.0498 90.1642C57.1409 88.223 52.2849 86.6244 52.2849 86.6244C52.2849 86.596 51.2903 81.7143 50.091 75.7482C48.8916 69.7819 48.0139 64.8434 48.1312 64.7292C48.2481 64.615 52.0802 61.4462 56.6434 57.6782L64.9221 50.7985L71.7087 53.1107C75.4238 54.3668 80.4258 56.0509 82.8245 56.8503ZM29.702 75.5769C28.9706 75.8053 27.157 77.8034 26.9814 78.5458C26.4842 80.4583 27.9467 82.8277 29.8482 83.1703L30.7842 83.3416L32.013 89.2222C32.715 92.4765 33.2122 95.1598 33.1829 95.1885C33.0366 95.3598 3.66712 78.8597 3.66712 78.6313C3.66712 78.5171 9.57616 73.2076 16.8015 66.8702L29.9066 55.3372L29.9945 65.3858C30.0529 73.2931 29.9945 75.4912 29.702 75.5769ZM97.9774 61.9601C103.243 63.7301 107.572 65.2716 107.572 65.3858C107.572 65.6997 91.7466 78.8026 91.5713 78.6313C91.4833 78.5742 90.635 74.2923 89.699 69.1254C88.7628 63.9869 87.9145 59.5336 87.8561 59.2481C87.7975 58.9913 87.8854 58.7629 88.0607 58.7629C88.2656 58.7629 92.7121 60.1902 97.9774 61.9601ZM49.2134 74.2351C50.1494 79.0026 51.0856 83.6842 51.2612 84.6547L51.6121 86.4246L43.2458 83.6271L34.8796 80.8296L34.8505 79.5162C34.8212 78.7742 34.587 77.8605 34.2945 77.4324C33.885 76.8045 33.8559 76.6332 34.2068 76.319C35.377 75.2059 47.1073 65.6142 47.2828 65.6142C47.3705 65.6142 48.2481 69.4964 49.2134 74.2351ZM120.268 66.6134C126.031 67.1557 130.799 67.6409 130.828 67.6694C130.887 67.7265 131.121 68.2404 131.384 68.8398L131.823 69.9245L130.74 70.8666C126.967 74.178 108.275 90.1642 108.157 90.1642C108.07 90.1642 108.157 85.2542 108.362 79.2594C108.538 73.236 108.713 67.7265 108.713 66.9557C108.742 65.871 108.83 65.6142 109.269 65.6142C109.532 65.6142 114.476 66.0708 120.268 66.6134ZM107.718 78.4602C107.485 85.2828 107.309 90.9066 107.309 90.935C107.28 90.9637 103.302 94.4177 99.1769 97.9576C98.5625 98.4999 98.4748 98.4999 97.5095 98.0431C96.9537 97.7863 96.1931 97.5863 95.7836 97.5863C95.3155 97.5863 94.9646 97.3866 94.8766 97.0726C94.5257 95.8735 91.7466 80.1444 91.8345 79.7733C91.8929 79.4307 107.894 65.871 108.07 66.0136C108.099 66.0423 107.923 71.6374 107.718 78.4602ZM132.847 70.6098C133.402 71.0095 133.315 71.2663 130.214 77.5182C128.459 81.1149 122.52 93.1046 117.079 104.181C111.609 115.285 107.104 124.335 107.046 124.278C106.958 124.22 107.777 95.845 107.953 92.1055L108.011 90.7637L120.005 80.487C126.616 74.8062 132.057 70.1816 132.145 70.1816C132.232 70.2101 132.554 70.3814 132.847 70.6098ZM18.9077 88.0233L33.4755 96.159L36.7225 111.917L39.9695 127.703L39.2968 128.36L38.6533 128.988L23.6174 107.664C15.3389 95.9306 7.52846 84.8831 6.2706 83.1132C5.04199 81.3433 4.07665 79.8875 4.16442 79.8875C4.25218 79.8875 10.8633 83.5413 18.9077 88.0233ZM93.063 89.0224C94.4964 96.7013 94.6134 97.4721 94.1746 97.7292C93.9114 97.8718 93.297 98.3857 92.7998 98.871L91.9222 99.7275L83.1757 96.8442L74.3999 93.9609L82.8831 86.9099C87.5343 83.0277 91.3664 80.0302 91.425 80.2299C91.454 80.4299 92.2147 84.3979 93.063 89.0224ZM43.3628 83.9411C47.7216 85.3684 51.3782 86.6244 51.4951 86.7386C51.7584 86.967 55.8244 106.978 55.7368 107.521C55.6782 107.72 51.2319 105.408 44.6499 101.726L33.651 95.6166L32.4225 89.5932C31.7204 86.282 31.223 83.5413 31.2523 83.5129C31.3109 83.4558 31.8374 83.2274 32.4516 82.9706C33.0366 82.7135 33.7387 82.1711 34.0605 81.7714C34.3531 81.3433 34.7626 81.1149 35.0258 81.2006C35.26 81.2862 39.0335 82.5138 43.3628 83.9411ZM62.5527 90.3069C68.0228 92.1055 72.7326 93.7041 72.9665 93.8183C73.2883 94.018 71.2991 95.7879 65.1853 100.898C60.6804 104.637 56.8776 107.749 56.7607 107.777C56.6144 107.835 55.7368 103.981 54.7715 99.242C52.3435 87.0241 52.3435 87.0241 52.4604 87.0241C52.519 87.0241 57.0532 88.5085 62.5527 90.3069ZM106.841 108.777C106.549 118.083 106.285 125.734 106.256 125.791C106.139 125.905 73.3467 114.315 73.3467 114.144C73.3467 114.058 77.5007 111.574 82.6199 108.634L91.8638 103.267L92.8291 104.181C93.5605 104.894 94.1162 105.123 95.2278 105.237C98.5332 105.522 100.639 102.639 99.2062 99.7275L98.7674 98.7854L100.025 97.6434C103.214 94.7888 107.104 91.5915 107.221 91.7057C107.28 91.7915 107.104 99.4704 106.841 108.777ZM83.2343 97.1582L91.8052 99.9844L91.7175 101.526L91.6296 103.096L82.2981 108.463C77.1788 111.432 72.7909 113.858 72.557 113.858C71.7963 113.858 57.2578 108.605 57.3164 108.377C57.4918 107.92 74.0781 94.1893 74.3706 94.2751C74.5462 94.3035 78.5245 95.6166 83.2343 97.1582ZM46.844 103.581C51.7584 106.322 55.7661 108.72 55.7075 108.891C55.6782 109.062 52.8992 113.373 49.5646 118.454L43.48 127.703L41.8417 127.56L40.1744 127.418L37.015 112.145C35.2891 103.752 33.885 96.7584 33.8559 96.6442C33.8559 96.359 34.6749 96.8155 46.844 103.581ZM64.3663 111.717C68.3447 113.116 71.5917 114.343 71.5917 114.457C71.5917 114.657 45.9371 129.559 45.5862 129.559C45.469 129.559 45.0888 129.188 44.7379 128.702L44.0942 127.875L50.2666 118.425C53.689 113.23 56.6144 109.034 56.7897 109.091C56.9653 109.148 60.3586 110.347 64.3663 111.717ZM88.4412 120.195C97.0121 123.221 103.945 125.791 103.828 125.876C103.594 126.076 46.142 131.671 46.025 131.528C45.9664 131.471 45.8494 131.1 45.7615 130.7C45.5862 130.015 46.2296 129.616 58.8082 122.365C66.0922 118.169 72.2058 114.715 72.44 114.715C72.6446 114.715 79.8407 117.198 88.4412 120.195Z" stroke="white" stroke-width="0.5"/>
</g>
</g>
<path d="M145.75 24.1875H159.906V40.2188H175.375V24.1875H189.594V70H175.375V51.4688H159.906V70H145.75V24.1875ZM190.535 24.1875H206.254L215.504 39.6562L224.754 24.1875H240.379L222.566 50.8125V70H208.379V50.8125L190.535 24.1875ZM241.07 24.1875H264.601C269.726 24.1875 273.56 25.4062 276.101 27.8438C278.664 30.2812 279.945 33.75 279.945 38.25C279.945 42.875 278.549 46.4896 275.757 49.0938C272.987 51.6979 268.747 53 263.039 53H255.289V70H241.07V24.1875ZM255.289 43.7188H258.757C261.487 43.7188 263.403 43.25 264.507 42.3125C265.612 41.3542 266.164 40.1354 266.164 38.6562C266.164 37.2188 265.685 36 264.726 35C263.768 34 261.966 33.5 259.32 33.5H255.289V43.7188ZM283.511 24.1875H321.449V33.9688H297.699V41.25H319.73V50.5938H297.699V59.625H322.136V70H283.511V24.1875ZM326.14 70V24.1875H349.734C354.109 24.1875 357.452 24.5625 359.765 25.3125C362.077 26.0625 363.942 27.4583 365.359 29.5C366.775 31.5208 367.484 33.9896 367.484 36.9062C367.484 39.4479 366.942 41.6458 365.859 43.5C364.775 45.3333 363.286 46.8229 361.39 47.9688C360.182 48.6979 358.525 49.3021 356.421 49.7812C358.109 50.3438 359.338 50.9062 360.109 51.4688C360.63 51.8438 361.38 52.6458 362.359 53.875C363.359 55.1042 364.025 56.0521 364.359 56.7188L371.202 70H355.202L347.64 56C346.682 54.1875 345.827 53.0104 345.077 52.4688C344.057 51.7604 342.9 51.4062 341.609 51.4062H340.359V70H326.14ZM340.359 42.75H346.327C346.973 42.75 348.223 42.5417 350.077 42.125C351.015 41.9375 351.775 41.4583 352.359 40.6875C352.963 39.9167 353.265 39.0312 353.265 38.0312C353.265 36.5521 352.796 35.4167 351.859 34.625C350.921 33.8333 349.161 33.4375 346.577 33.4375H340.359V42.75ZM371.925 24.1875H386.081V58.7188H408.175V70H371.925V24.1875ZM410.741 24.1875H448.679V33.9688H424.929V41.25H446.96V50.5938H424.929V59.625H449.366V70H410.741V24.1875ZM453.37 24.1875H474.401C478.547 24.1875 481.891 24.75 484.432 25.875C486.995 27 489.11 28.6146 490.776 30.7188C492.443 32.8229 493.651 35.2708 494.401 38.0625C495.151 40.8542 495.526 43.8125 495.526 46.9375C495.526 51.8333 494.964 55.6354 493.839 58.3438C492.735 61.0312 491.193 63.2917 489.214 65.125C487.235 66.9375 485.11 68.1458 482.839 68.75C479.735 69.5833 476.922 70 474.401 70H453.37V24.1875ZM467.526 34.5625V59.5938H470.995C473.953 59.5938 476.057 59.2708 477.307 58.625C478.557 57.9583 479.537 56.8125 480.245 55.1875C480.953 53.5417 481.307 50.8854 481.307 47.2188C481.307 42.3646 480.516 39.0417 478.932 37.25C477.349 35.4583 474.724 34.5625 471.057 34.5625H467.526ZM522.186 53.4062V43.875H544.061V63.4062C539.874 66.2604 536.165 68.2083 532.936 69.25C529.728 70.2708 525.915 70.7812 521.499 70.7812C516.061 70.7812 511.624 69.8542 508.186 68C504.77 66.1458 502.113 63.3854 500.217 59.7188C498.342 56.0521 497.405 51.8438 497.405 47.0938C497.405 42.0938 498.436 37.75 500.499 34.0625C502.561 30.3542 505.582 27.5417 509.561 25.625C512.665 24.1458 516.842 23.4062 522.092 23.4062C527.155 23.4062 530.936 23.8646 533.436 24.7812C535.957 25.6979 538.04 27.125 539.686 29.0625C541.353 30.9792 542.603 33.4167 543.436 36.375L529.78 38.8125C529.217 37.0833 528.259 35.7604 526.905 34.8438C525.572 33.9271 523.863 33.4688 521.78 33.4688C518.676 33.4688 516.197 34.5521 514.342 36.7188C512.509 38.8646 511.592 42.2708 511.592 46.9375C511.592 51.8958 512.52 55.4375 514.374 57.5625C516.249 59.6875 518.853 60.75 522.186 60.75C523.77 60.75 525.28 60.5208 526.717 60.0625C528.155 59.6042 529.801 58.8229 531.655 57.7188V53.4062H522.186ZM548.596 24.1875H586.534V33.9688H562.784V41.25H584.815V50.5938H562.784V59.625H587.221V70H548.596V24.1875ZM591.225 70V24.1875H614.819C619.194 24.1875 622.538 24.5625 624.85 25.3125C627.163 26.0625 629.027 27.4583 630.444 29.5C631.86 31.5208 632.569 33.9896 632.569 36.9062C632.569 39.4479 632.027 41.6458 630.944 43.5C629.86 45.3333 628.371 46.8229 626.475 47.9688C625.267 48.6979 623.61 49.3021 621.506 49.7812C623.194 50.3438 624.423 50.9062 625.194 51.4688C625.715 51.8438 626.465 52.6458 627.444 53.875C628.444 55.1042 629.11 56.0521 629.444 56.7188L636.288 70H620.288L612.725 56C611.767 54.1875 610.913 53.0104 610.163 52.4688C609.142 51.7604 607.985 51.4062 606.694 51.4062H605.444V70H591.225ZM605.444 42.75H611.413C612.058 42.75 613.308 42.5417 615.163 42.125C616.1 41.9375 616.86 41.4583 617.444 40.6875C618.048 39.9167 618.35 39.0312 618.35 38.0312C618.35 36.5521 617.881 35.4167 616.944 34.625C616.006 33.8333 614.246 33.4375 611.663 33.4375H605.444V42.75Z" fill="white"/>
<path d="M146.906 133V81.4609H181.676V87.543H153.727V103.504H177.914V109.586H153.727V133H146.906ZM191.376 107.898C191.376 99.3438 193.673 92.6523 198.267 87.8242C202.86 82.9727 208.79 80.5469 216.056 80.5469C220.814 80.5469 225.103 81.6836 228.923 83.957C232.743 86.2305 235.65 89.4062 237.642 93.4844C239.657 97.5391 240.665 102.145 240.665 107.301C240.665 112.527 239.61 117.203 237.501 121.328C235.392 125.453 232.403 128.582 228.536 130.715C224.669 132.824 220.497 133.879 216.021 133.879C211.169 133.879 206.833 132.707 203.013 130.363C199.193 128.02 196.298 124.82 194.329 120.766C192.36 116.711 191.376 112.422 191.376 107.898ZM198.407 108.004C198.407 114.215 200.071 119.113 203.4 122.699C206.751 126.262 210.946 128.043 215.985 128.043C221.118 128.043 225.337 126.238 228.642 122.629C231.97 119.02 233.634 113.898 233.634 107.266C233.634 103.07 232.919 99.4141 231.489 96.2969C230.083 93.1562 228.009 90.7305 225.267 89.0195C222.548 87.2852 219.489 86.418 216.091 86.418C211.263 86.418 207.103 88.082 203.61 91.4102C200.142 94.7148 198.407 100.246 198.407 108.004ZM286.19 81.4609H293.01V111.238C293.01 116.418 292.424 120.531 291.252 123.578C290.08 126.625 287.959 129.109 284.889 131.031C281.842 132.93 277.834 133.879 272.865 133.879C268.037 133.879 264.088 133.047 261.018 131.383C257.948 129.719 255.756 127.316 254.444 124.176C253.131 121.012 252.475 116.699 252.475 111.238V81.4609H259.295V111.203C259.295 115.68 259.705 118.984 260.526 121.117C261.369 123.227 262.799 124.855 264.815 126.004C266.854 127.152 269.338 127.727 272.268 127.727C277.283 127.727 280.858 126.59 282.99 124.316C285.123 122.043 286.19 117.672 286.19 111.203V81.4609ZM307.21 133V81.4609H314.206L341.277 121.926V81.4609H347.816V133H340.82L313.749 92.5V133H307.21ZM362.192 133V81.4609H379.946C383.954 81.4609 387.012 81.707 389.122 82.1992C392.075 82.8789 394.594 84.1094 396.68 85.8906C399.399 88.1875 401.426 91.1289 402.762 94.7148C404.122 98.2773 404.801 102.355 404.801 106.949C404.801 110.863 404.344 114.332 403.43 117.355C402.516 120.379 401.344 122.887 399.915 124.879C398.485 126.848 396.915 128.406 395.204 129.555C393.516 130.68 391.465 131.535 389.051 132.121C386.661 132.707 383.907 133 380.79 133H362.192ZM369.012 126.918H380.016C383.415 126.918 386.075 126.602 387.997 125.969C389.942 125.336 391.489 124.445 392.637 123.297C394.254 121.68 395.508 119.512 396.399 116.793C397.313 114.051 397.77 110.734 397.77 106.844C397.77 101.453 396.879 97.3164 395.098 94.4336C393.34 91.5273 391.196 89.582 388.665 88.5977C386.836 87.8945 383.895 87.543 379.84 87.543H369.012V126.918ZM411.443 133L431.236 81.4609H438.584L459.677 133H451.908L445.896 117.391H424.345L418.685 133H411.443ZM426.314 111.836H443.787L438.408 97.5625C436.767 93.2266 435.548 89.6641 434.752 86.875C434.095 90.1797 433.17 93.4609 431.974 96.7188L426.314 111.836ZM475.776 133V87.543H458.796V81.4609H499.647V87.543H482.596V133H475.776ZM510.719 133V81.4609H517.539V133H510.719ZM530.403 107.898C530.403 99.3438 532.7 92.6523 537.294 87.8242C541.888 82.9727 547.817 80.5469 555.083 80.5469C559.841 80.5469 564.13 81.6836 567.95 83.957C571.77 86.2305 574.677 89.4062 576.669 93.4844C578.685 97.5391 579.692 102.145 579.692 107.301C579.692 112.527 578.638 117.203 576.528 121.328C574.419 125.453 571.431 128.582 567.563 130.715C563.696 132.824 559.524 133.879 555.048 133.879C550.196 133.879 545.86 132.707 542.04 130.363C538.22 128.02 535.325 124.82 533.356 120.766C531.388 116.711 530.403 112.422 530.403 107.898ZM537.435 108.004C537.435 114.215 539.099 119.113 542.427 122.699C545.778 126.262 549.974 128.043 555.013 128.043C560.145 128.043 564.364 126.238 567.669 122.629C570.997 119.02 572.661 113.898 572.661 107.266C572.661 103.07 571.946 99.4141 570.517 96.2969C569.11 93.1562 567.036 90.7305 564.294 89.0195C561.575 87.2852 558.517 86.418 555.118 86.418C550.29 86.418 546.13 88.082 542.638 91.4102C539.169 94.7148 537.435 100.246 537.435 108.004ZM591.326 133V81.4609H598.322L625.393 121.926V81.4609H631.932V133H624.936L597.865 92.5V133H591.326Z" fill="white"/>
<defs>
<clipPath id="clip0_216_5">
<rect width="141" height="126" fill="white" transform="translate(0 12)"/>
</clipPath>
</defs>
</svg>
